<svg xmlns="http://www.w3.org/2000/svg" viewBox="0 0 512 512">
  <defs>
    <linearGradient id="bg" x1="84" y1="32" x2="420" y2="484" gradientUnits="userSpaceOnUse">
      <stop offset="0" stop-color="#f7edd8"/>
      <stop offset="0.48" stop-color="#e7f1e9"/>
      <stop offset="1" stop-color="#cfe6dd"/>
    </linearGradient>
    <linearGradient id="cabinet" x1="124" y1="126" x2="394" y2="414" gradientUnits="userSpaceOnUse">
      <stop offset="0" stop-color="#ffffff"/>
      <stop offset="1" stop-color="#f2f6f1"/>
    </linearGradient>
    <filter id="shadow" x="70" y="78" width="372" height="390" color-interpolation-filters="sRGB" filterUnits="userSpaceOnUse">
      <feDropShadow dx="0" dy="18" stdDeviation="18" flood-color="#204f43" flood-opacity="0.18"/>
    </filter>
  </defs>
  <rect width="512" height="512" rx="112" fill="url(#bg)"/>
  <g filter="url(#shadow)">
    <rect x="106" y="116" width="300" height="292" rx="48" fill="url(#cabinet)"/>
    <rect x="136" y="238" width="240" height="16" rx="8" fill="#d7e4dc"/>
    <rect x="136" y="334" width="240" height="16" rx="8" fill="#d7e4dc"/>
    <rect x="132" y="145" width="248" height="238" rx="36" fill="none" stroke="#2f6f60" stroke-width="14"/>
  </g>
  <g>
    <rect x="159" y="173" width="54" height="56" rx="16" fill="#f2b84b"/>
    <rect x="166" y="154" width="40" height="30" rx="12" fill="#2f6f60"/>
    <rect x="230" y="156" width="78" height="73" rx="24" fill="#7bbba2"/>
    <rect x="247" y="136" width="44" height="28" rx="12" fill="#2f6f60"/>
    <circle cx="339" cy="196" r="34" fill="#e98270"/>
    <path d="M322 182h34M322 198h34M327 214h24" fill="none" stroke="#fff7ec" stroke-width="9" stroke-linecap="round"/>
  </g>
  <g>
    <rect x="158" y="277" width="72" height="52" rx="18" fill="#f7d78c"/>
    <path d="M170 277c8-20 40-20 48 0" fill="none" stroke="#2f6f60" stroke-width="12" stroke-linecap="round"/>
    <rect x="252" y="276" width="42" height="52" rx="14" fill="#e98270"/>
    <rect x="302" y="263" width="46" height="66" rx="16" fill="#7bbba2"/>
  </g>
  <path d="M171 369h170" fill="none" stroke="#2f6f60" stroke-width="18" stroke-linecap="round"/>
</svg>
